<mxfile host="app.diagrams.net" modified="2024-06-15T23:14:34.106Z" agent="Mozilla/5.0 (Windows NT 10.0; Win64; x64; rv:127.0) Gecko/20100101 Firefox/127.0" etag="uD0iGm06aHW0jskPvoM-" version="24.5.4" type="device">
  <diagram name="Page-1" id="c4acf3e9-155e-7222-9cf6-157b1a14988f">
    <mxGraphModel dx="1274" dy="680" grid="0" gridSize="10" guides="1" tooltips="1" connect="1" arrows="1" fold="1" page="1" pageScale="1" pageWidth="850" pageHeight="1100" background="none" math="0" shadow="0">
      <root>
        <mxCell id="0" />
        <mxCell id="1" parent="0" />
        <mxCell id="5d2195bd80daf111-18" value="&lt;p style=&quot;margin:0px;margin-top:4px;text-align:center;&quot;&gt;&lt;b&gt;TwitchUserData&lt;/b&gt;&lt;br&gt;&lt;/p&gt;&lt;hr size=&quot;1&quot;&gt;&lt;p style=&quot;margin:0px;margin-left:4px;&quot;&gt;+ &lt;b&gt;account_id:&lt;/b&gt; PK&lt;br&gt;+ login_name&lt;/p&gt;&lt;p style=&quot;margin:0px;margin-left:4px;&quot;&gt;+ display_name&lt;/p&gt;&lt;p style=&quot;margin:0px;margin-left:4px;&quot;&gt;+ account_type&lt;/p&gt;&lt;p style=&quot;margin:0px;margin-left:4px;&quot;&gt;+ broadcaster_type&lt;/p&gt;&lt;p style=&quot;margin:0px;margin-left:4px;&quot;&gt;&lt;br&gt;&lt;/p&gt;&lt;p style=&quot;margin:0px;margin-left:4px;&quot;&gt;+ most_recent_concurrent_channels&lt;/p&gt;&lt;p style=&quot;margin:0px;margin-left:4px;&quot;&gt;+ all_time_most_concurrent_channels&lt;br&gt;&lt;/p&gt;&lt;hr size=&quot;1&quot;&gt;&lt;p style=&quot;margin:0px;margin-left:4px;&quot;&gt;+ ViewerSightings: One-to-Many&lt;/p&gt;&lt;p style=&quot;margin:0px;margin-left:4px;&quot;&gt;+ SuspectedBot: One-or-None&lt;br&gt;&lt;br&gt;&lt;/p&gt;" style="verticalAlign=top;align=left;overflow=fill;fontSize=12;fontFamily=Helvetica;html=1;rounded=0;shadow=0;comic=0;labelBackgroundColor=none;strokeWidth=1" parent="1" vertex="1">
          <mxGeometry x="85" y="92" width="220" height="203" as="geometry" />
        </mxCell>
        <mxCell id="AvK1rYgLBQbUIPVSa8lQ-2" value="&lt;p style=&quot;margin:0px;margin-top:4px;text-align:center;&quot;&gt;&lt;b&gt;SuspectedBots&lt;/b&gt;&lt;br&gt;&lt;/p&gt;&lt;hr size=&quot;1&quot;&gt;&lt;p style=&quot;margin:0px;margin-left:4px;&quot;&gt;+ &lt;b&gt;account_id&lt;/b&gt;: PK, FK&lt;br&gt;+ &lt;i&gt;aliases &lt;/i&gt;(10000+ concurrent channels)&lt;/p&gt;&lt;p style=&quot;margin:0px;margin-left:4px;&quot;&gt;+ account_creation_date&lt;/p&gt;&lt;p style=&quot;margin:0px;margin-left:4px;&quot;&gt;+ account_age_in_days&lt;/p&gt;&lt;p style=&quot;margin:0px;margin-left:4px;&quot;&gt;+ follower_count&lt;/p&gt;&lt;p style=&quot;margin:0px;margin-left:4px;&quot;&gt;+ following_count&lt;/p&gt;&lt;p style=&quot;margin:0px;margin-left:4px;&quot;&gt;+ is_banned_or_deleted&lt;/p&gt;&lt;p style=&quot;margin:0px;margin-left:4px;&quot;&gt;+ additional_notes&lt;/p&gt;&lt;hr size=&quot;1&quot;&gt;&lt;p style=&quot;margin:0px;margin-left:4px;&quot;&gt;+ TwitchUserData: One-to-One&lt;br&gt;&lt;br&gt;&lt;/p&gt;" style="verticalAlign=top;align=left;overflow=fill;fontSize=12;fontFamily=Helvetica;html=1;rounded=0;shadow=0;comic=0;labelBackgroundColor=none;strokeWidth=1" vertex="1" parent="1">
          <mxGeometry x="525" y="92" width="228" height="203" as="geometry" />
        </mxCell>
        <mxCell id="AvK1rYgLBQbUIPVSa8lQ-3" value="" style="endArrow=classic;html=1;rounded=0;entryX=0.991;entryY=0.197;entryDx=0;entryDy=0;entryPerimeter=0;exitX=0.009;exitY=0.197;exitDx=0;exitDy=0;exitPerimeter=0;endSize=12;" edge="1" parent="1" source="AvK1rYgLBQbUIPVSa8lQ-2" target="5d2195bd80daf111-18">
          <mxGeometry width="50" height="50" relative="1" as="geometry">
            <mxPoint x="535" y="385" as="sourcePoint" />
            <mxPoint x="585" y="335" as="targetPoint" />
          </mxGeometry>
        </mxCell>
        <mxCell id="AvK1rYgLBQbUIPVSa8lQ-21" value="" style="edgeStyle=orthogonalEdgeStyle;rounded=0;orthogonalLoop=1;jettySize=auto;html=1;" edge="1" parent="1" source="AvK1rYgLBQbUIPVSa8lQ-4" target="AvK1rYgLBQbUIPVSa8lQ-7">
          <mxGeometry relative="1" as="geometry" />
        </mxCell>
        <mxCell id="AvK1rYgLBQbUIPVSa8lQ-4" value="&lt;p style=&quot;margin:0px;margin-top:4px;text-align:center;&quot;&gt;&lt;b&gt;ViewerSightings&lt;/b&gt;&lt;br&gt;&lt;/p&gt;&lt;hr size=&quot;1&quot;&gt;&lt;p style=&quot;margin:0px;margin-left:4px;&quot;&gt;+ &lt;b&gt;viewer_sighting_id:&lt;/b&gt; PK&lt;/p&gt;&lt;p style=&quot;margin:0px;margin-left:4px;&quot;&gt;+ viewerlist_fetch_id: FK&lt;br&gt;&lt;/p&gt;&lt;p style=&quot;margin:0px;margin-left:4px;&quot;&gt;+ login_name&lt;/p&gt;&lt;hr size=&quot;1&quot;&gt;&lt;p style=&quot;margin:0px;margin-left:4px;&quot;&gt;+ TwitchUserData: Many-to-One&lt;/p&gt;&lt;p style=&quot;margin:0px;margin-left:4px;&quot;&gt;+ ChannelViewerListFetch: Many-to-One&lt;/p&gt;" style="verticalAlign=top;align=left;overflow=fill;fontSize=12;fontFamily=Helvetica;html=1;rounded=0;shadow=0;comic=0;labelBackgroundColor=none;strokeWidth=1" vertex="1" parent="1">
          <mxGeometry x="315" y="340" width="230" height="129" as="geometry" />
        </mxCell>
        <mxCell id="AvK1rYgLBQbUIPVSa8lQ-5" value="&lt;b&gt;Viewer List Fetcher&lt;br&gt;&lt;/b&gt;" style="ellipse;whiteSpace=wrap;html=1;" vertex="1" parent="1">
          <mxGeometry x="645" y="365" width="120" height="80" as="geometry" />
        </mxCell>
        <mxCell id="AvK1rYgLBQbUIPVSa8lQ-6" value="" style="shape=flexArrow;endArrow=classic;html=1;rounded=0;exitX=0;exitY=0.5;exitDx=0;exitDy=0;entryX=1;entryY=0.5;entryDx=0;entryDy=0;fillColor=#00FF22;fillStyle=solid;" edge="1" parent="1" source="AvK1rYgLBQbUIPVSa8lQ-5" target="AvK1rYgLBQbUIPVSa8lQ-4">
          <mxGeometry width="50" height="50" relative="1" as="geometry">
            <mxPoint x="535" y="355" as="sourcePoint" />
            <mxPoint x="585" y="305" as="targetPoint" />
          </mxGeometry>
        </mxCell>
        <mxCell id="AvK1rYgLBQbUIPVSa8lQ-7" value="&lt;b&gt;login_name&lt;/b&gt;" style="text;html=1;align=center;verticalAlign=middle;whiteSpace=wrap;rounded=0;" vertex="1" parent="1">
          <mxGeometry x="565" y="375" width="80" height="30" as="geometry" />
        </mxCell>
        <mxCell id="AvK1rYgLBQbUIPVSa8lQ-8" value="&lt;b&gt;User Data Fetcher&lt;br&gt;&lt;/b&gt;" style="ellipse;whiteSpace=wrap;html=1;" vertex="1" parent="1">
          <mxGeometry x="135" y="365" width="120" height="80" as="geometry" />
        </mxCell>
        <mxCell id="AvK1rYgLBQbUIPVSa8lQ-9" value="" style="shape=flexArrow;endArrow=classic;html=1;rounded=0;exitX=0.5;exitY=0;exitDx=0;exitDy=0;entryX=0.5;entryY=1;entryDx=0;entryDy=0;fillColor=#00FF22;fillStyle=solid;" edge="1" parent="1" source="AvK1rYgLBQbUIPVSa8lQ-8" target="5d2195bd80daf111-18">
          <mxGeometry width="50" height="50" relative="1" as="geometry">
            <mxPoint x="135" y="325" as="sourcePoint" />
            <mxPoint x="35" y="325" as="targetPoint" />
          </mxGeometry>
        </mxCell>
        <mxCell id="AvK1rYgLBQbUIPVSa8lQ-10" value="" style="shape=flexArrow;endArrow=classic;html=1;rounded=0;exitX=0;exitY=0.5;exitDx=0;exitDy=0;entryX=1;entryY=0.5;entryDx=0;entryDy=0;fillColor=#00FF22;fillStyle=solid;" edge="1" parent="1" source="AvK1rYgLBQbUIPVSa8lQ-4" target="AvK1rYgLBQbUIPVSa8lQ-8">
          <mxGeometry width="50" height="50" relative="1" as="geometry">
            <mxPoint x="255" y="505" as="sourcePoint" />
            <mxPoint x="155" y="505" as="targetPoint" />
          </mxGeometry>
        </mxCell>
        <mxCell id="AvK1rYgLBQbUIPVSa8lQ-12" value="&lt;p style=&quot;margin:0px;margin-top:4px;text-align:center;&quot;&gt;&lt;b&gt;ChannelViewerListFetch&lt;/b&gt;&lt;br&gt;&lt;/p&gt;&lt;hr size=&quot;1&quot;&gt;&lt;p style=&quot;margin:0px;margin-left:4px;&quot;&gt;+ &lt;b&gt;fetch_id:&lt;/b&gt; PK&lt;br&gt;+ scanning_session_id: FK&lt;br&gt;&lt;/p&gt;&lt;p style=&quot;margin:0px;margin-left:4px;&quot;&gt;+ channel_id&lt;/p&gt;&lt;p style=&quot;margin:0px;margin-left:4px;&quot;&gt;+ channel_name&lt;/p&gt;&lt;p style=&quot;margin:0px;margin-left:4px;&quot;&gt;+ category&lt;/p&gt;&lt;p style=&quot;margin:0px;margin-left:4px;&quot;&gt;+ viewer_count&lt;/p&gt;&lt;p style=&quot;margin:0px;margin-left:4px;&quot;&gt;+ channel_created_at&lt;/p&gt;&lt;p style=&quot;margin:0px;margin-left:4px;&quot;&gt;+ time_of_fetch&lt;/p&gt;&lt;p style=&quot;margin:0px;margin-left:4px;&quot;&gt;+ fetch_duration&lt;/p&gt;&lt;hr size=&quot;1&quot;&gt;&lt;p style=&quot;margin:0px;margin-left:4px;&quot;&gt;+ ViewerSightings: One-to-Many&lt;br&gt;&lt;/p&gt;&lt;p style=&quot;margin:0px;margin-left:4px;&quot;&gt;+ ScanningSession: Many-to-One&lt;br&gt;&lt;br&gt;&lt;/p&gt;" style="verticalAlign=top;align=left;overflow=fill;fontSize=12;fontFamily=Helvetica;html=1;rounded=0;shadow=0;comic=0;labelBackgroundColor=none;strokeWidth=1" vertex="1" parent="1">
          <mxGeometry x="320" y="508" width="220" height="212" as="geometry" />
        </mxCell>
        <mxCell id="AvK1rYgLBQbUIPVSa8lQ-14" value="" style="endArrow=classic;html=1;rounded=0;entryX=0.5;entryY=1;entryDx=0;entryDy=0;exitX=0.5;exitY=0;exitDx=0;exitDy=0;endSize=12;" edge="1" parent="1" source="AvK1rYgLBQbUIPVSa8lQ-12" target="AvK1rYgLBQbUIPVSa8lQ-4">
          <mxGeometry width="50" height="50" relative="1" as="geometry">
            <mxPoint x="212" y="543" as="sourcePoint" />
            <mxPoint x="262" y="493" as="targetPoint" />
          </mxGeometry>
        </mxCell>
        <mxCell id="AvK1rYgLBQbUIPVSa8lQ-15" value="&lt;p style=&quot;margin:0px;margin-top:4px;text-align:center;&quot;&gt;&lt;b&gt;ScanningSession&lt;/b&gt;&lt;br&gt;&lt;/p&gt;&lt;hr size=&quot;1&quot;&gt;&lt;p style=&quot;margin:0px;margin-left:4px;&quot;&gt;+ &lt;b&gt;scanning_session_id:&lt;/b&gt; PK&lt;br&gt;&lt;/p&gt;&lt;p style=&quot;margin:0px;margin-left:4px;&quot;&gt;+ time_started&lt;/p&gt;&lt;p style=&quot;margin:0px;margin-left:4px;&quot;&gt;+ time_ended&lt;/p&gt;&lt;p style=&quot;margin:0px;margin-left:4px;&quot;&gt;+ channels_in_scan&lt;/p&gt;&lt;p style=&quot;margin:0px;margin-left:4px;&quot;&gt;+ viewerlists_fetched&lt;/p&gt;&lt;p style=&quot;margin:0px;margin-left:4px;&quot;&gt;+ average_time_per_fetch&lt;/p&gt;&lt;p style=&quot;margin:0px;margin-left:4px;&quot;&gt;+ suspects_spotted&lt;/p&gt;&lt;p style=&quot;margin:0px;margin-left:4px;&quot;&gt;+ error_count&lt;br&gt;&lt;/p&gt;&lt;hr size=&quot;1&quot;&gt;&lt;p style=&quot;margin:0px;margin-left:4px;&quot;&gt;+ ChannelViewerListFetches: One-to-Many&lt;br&gt;&lt;br&gt;&lt;/p&gt;" style="verticalAlign=top;align=left;overflow=fill;fontSize=12;fontFamily=Helvetica;html=1;rounded=0;shadow=0;comic=0;labelBackgroundColor=none;strokeWidth=1" vertex="1" parent="1">
          <mxGeometry x="307" y="759" width="246" height="186" as="geometry" />
        </mxCell>
        <mxCell id="AvK1rYgLBQbUIPVSa8lQ-16" value="" style="endArrow=classic;html=1;rounded=0;entryX=0.5;entryY=1;entryDx=0;entryDy=0;endSize=12;exitX=0.5;exitY=0;exitDx=0;exitDy=0;" edge="1" parent="1" source="AvK1rYgLBQbUIPVSa8lQ-15" target="AvK1rYgLBQbUIPVSa8lQ-12">
          <mxGeometry width="50" height="50" relative="1" as="geometry">
            <mxPoint x="440" y="518" as="sourcePoint" />
            <mxPoint x="440" y="479" as="targetPoint" />
          </mxGeometry>
        </mxCell>
        <mxCell id="AvK1rYgLBQbUIPVSa8lQ-20" value="&lt;b&gt;Scan Conductor&lt;br&gt;&lt;/b&gt;" style="ellipse;whiteSpace=wrap;html=1;" vertex="1" parent="1">
          <mxGeometry x="645" y="574" width="120" height="80" as="geometry" />
        </mxCell>
        <mxCell id="AvK1rYgLBQbUIPVSa8lQ-22" value="" style="shape=flexArrow;endArrow=classic;html=1;rounded=0;exitX=0;exitY=0.5;exitDx=0;exitDy=0;entryX=1;entryY=0.5;entryDx=0;entryDy=0;fillColor=#00FF22;fillStyle=solid;" edge="1" parent="1" source="AvK1rYgLBQbUIPVSa8lQ-20" target="AvK1rYgLBQbUIPVSa8lQ-12">
          <mxGeometry width="50" height="50" relative="1" as="geometry">
            <mxPoint x="647" y="550" as="sourcePoint" />
            <mxPoint x="547" y="550" as="targetPoint" />
          </mxGeometry>
        </mxCell>
        <mxCell id="AvK1rYgLBQbUIPVSa8lQ-23" value="" style="shape=flexArrow;endArrow=classic;html=1;rounded=0;exitX=0.5;exitY=1;exitDx=0;exitDy=0;entryX=1;entryY=0.5;entryDx=0;entryDy=0;fillColor=#00FF22;fillStyle=solid;" edge="1" parent="1" source="AvK1rYgLBQbUIPVSa8lQ-20" target="AvK1rYgLBQbUIPVSa8lQ-15">
          <mxGeometry width="50" height="50" relative="1" as="geometry">
            <mxPoint x="655" y="683" as="sourcePoint" />
            <mxPoint x="550" y="683" as="targetPoint" />
            <Array as="points">
              <mxPoint x="703" y="852" />
            </Array>
          </mxGeometry>
        </mxCell>
        <mxCell id="AvK1rYgLBQbUIPVSa8lQ-24" value="&lt;b&gt;Suspicious User Classifier&lt;br&gt;&lt;/b&gt;" style="ellipse;whiteSpace=wrap;html=1;" vertex="1" parent="1">
          <mxGeometry x="355" y="153.5" width="120" height="80" as="geometry" />
        </mxCell>
        <mxCell id="AvK1rYgLBQbUIPVSa8lQ-25" value="" style="shape=flexArrow;endArrow=classic;html=1;rounded=0;exitX=1;exitY=0.5;exitDx=0;exitDy=0;entryX=0;entryY=0.5;entryDx=0;entryDy=0;fillColor=#00FF22;fillStyle=solid;" edge="1" parent="1" source="5d2195bd80daf111-18" target="AvK1rYgLBQbUIPVSa8lQ-24">
          <mxGeometry width="50" height="50" relative="1" as="geometry">
            <mxPoint x="375" y="257" as="sourcePoint" />
            <mxPoint x="315" y="257" as="targetPoint" />
          </mxGeometry>
        </mxCell>
        <mxCell id="AvK1rYgLBQbUIPVSa8lQ-26" value="" style="shape=flexArrow;endArrow=classic;html=1;rounded=0;entryX=0;entryY=0.5;entryDx=0;entryDy=0;fillColor=#00FF22;fillStyle=solid;" edge="1" parent="1" source="AvK1rYgLBQbUIPVSa8lQ-24" target="AvK1rYgLBQbUIPVSa8lQ-2">
          <mxGeometry width="50" height="50" relative="1" as="geometry">
            <mxPoint x="402" y="275" as="sourcePoint" />
            <mxPoint x="375" y="204" as="targetPoint" />
          </mxGeometry>
        </mxCell>
      </root>
    </mxGraphModel>
  </diagram>
</mxfile>
